<svg width="36" height="35" viewBox="0 0 36 35" fill="none" xmlns="http://www.w3.org/2000/svg">
<path d="M9.30584 33.0959C5.76475 31.133 3.01381 28.003 1.52173 24.2393C0.0296593 20.4755 -0.111226 16.3109 1.12308 12.4549C2.35739 8.59891 4.89053 5.2902 8.29087 3.09252C11.6912 0.894843 15.7484 -0.055823 19.7711 0.402505C23.7938 0.860832 27.5331 2.69979 30.3519 5.60606C33.1707 8.51232 34.8946 12.3061 35.2299 16.3409C35.5652 20.3757 34.4911 24.4019 32.1906 27.7336C29.8901 31.0652 26.5055 33.4961 22.6137 34.6121L21.8681 32.0119C25.1584 31.0684 28.0198 29.0133 29.9647 26.1966C31.9096 23.3799 32.8177 19.976 32.5342 16.5649C32.2508 13.1537 30.7933 9.94637 28.4102 7.48933C26.0271 5.03229 22.8658 3.47758 19.4649 3.0901C16.064 2.70261 12.6339 3.50633 9.75915 5.36431C6.8844 7.2223 4.74282 10.0196 3.69929 13.2795C2.65577 16.5395 2.77488 20.0604 4.03633 23.2424C5.29777 26.4244 7.6235 29.0706 10.6172 30.73L9.30584 33.0959Z" fill="white"/>
</svg>
